<?xml version="1.0" standalone="no"?>
<!DOCTYPE svg PUBLIC "-//W3C//DTD SVG 20010904//EN"
 "http://www.w3.org/TR/2001/REC-SVG-20010904/DTD/svg10.dtd">
<svg version="1.0" xmlns="http://www.w3.org/2000/svg"
 width="700.000000pt" height="700.000000pt" viewBox="0 0 700.000000 700.000000"
 preserveAspectRatio="xMidYMid meet">
<metadata>
Created by potrace 1.11, written by Peter Selinger 2001-2013
</metadata>
<g transform="translate(0.000000,700.000000) scale(0.100000,-0.100000)"
fill="#000000" stroke="none">
<path d="M3299 6996 c-2 -2 -47 -6 -100 -10 -53 -4 -105 -8 -116 -10 -11 -3
-44 -7 -73 -11 -29 -4 -62 -9 -74 -11 -12 -2 -37 -7 -56 -10 -19 -4 -44 -8
-55 -11 -11 -2 -42 -8 -70 -13 -141 -28 -465 -129 -580 -180 -22 -10 -71 -32
-110 -49 -38 -16 -117 -54 -175 -84 -724 -374 -1286 -980 -1607 -1732 -76
-178 -170 -463 -189 -574 -3 -14 -7 -34 -10 -43 -11 -37 -50 -267 -60 -353 -4
-33 -8 -73 -11 -90 -8 -59 -10 -492 -2 -570 15 -168 21 -220 24 -235 3 -8 7
-31 10 -50 119 -734 458 -1400 976 -1920 53 -52 126 -122 165 -155 38 -33 71
-62 74 -65 26 -29 360 -270 373 -270 3 0 27 -14 53 -31 72 -49 376 -201 506
-253 65 -26 173 -65 240 -87 106 -34 147 -46 228 -64 8 -2 53 -12 100 -23 86
-20 174 -36 265 -48 28 -3 57 -8 66 -9 9 -2 67 -7 130 -11 228 -17 573 -7 746
21 18 3 50 7 71 10 20 3 46 8 58 10 12 3 38 7 59 11 76 12 313 74 420 109 192
65 317 116 470 193 50 25 108 54 130 65 22 11 59 33 82 48 23 16 44 29 47 29
14 0 307 201 336 230 3 3 39 32 80 65 196 156 396 368 588 620 286 378 527
930 617 1420 10 50 19 98 21 109 2 10 6 44 10 75 3 31 8 65 10 76 26 131 24
613 -2 805 -13 90 -36 232 -50 295 -8 39 -16 79 -18 90 -16 81 -104 368 -136
440 -4 11 -23 56 -40 100 -43 107 -132 286 -209 419 -416 720 -1095 1276
-1891 1547 -149 51 -316 97 -412 114 -18 4 -51 10 -73 15 -22 5 -58 11 -80 14
-23 4 -50 8 -60 10 -11 2 -49 7 -85 11 -36 5 -76 10 -90 11 -36 5 -517 13
-521 10z m511 -450 c33 -5 98 -14 150 -20 182 -23 505 -114 715 -201 107 -44
324 -151 346 -171 8 -8 19 -14 23 -14 12 0 229 -144 302 -201 216 -166 381
-332 590 -592 36 -45 146 -211 196 -297 154 -263 294 -625 354 -915 48 -236
59 -351 59 -625 -1 -315 -19 -478 -85 -741 -177 -714 -622 -1360 -1220 -1771
-353 -242 -778 -422 -1165 -492 -16 -3 -39 -8 -50 -10 -11 -2 -42 -7 -68 -10
-27 -4 -59 -9 -70 -12 -136 -26 -606 -25 -797 2 -204 29 -519 106 -592 145
-10 5 -23 9 -30 9 -12 0 -98 33 -203 78 -139 59 -355 180 -494 276 -40 28 -83
58 -95 66 -68 47 -238 194 -328 282 -396 394 -678 885 -813 1418 -29 112 -30
119 -39 171 -3 19 -8 46 -11 62 -30 161 -39 281 -40 507 0 285 11 404 56 620
11 52 22 106 25 120 26 133 128 413 224 615 56 116 181 332 232 400 5 6 40 53
79 105 121 160 283 335 424 455 39 33 72 63 75 66 3 3 41 32 85 65 260 196
534 344 834 449 92 33 290 91 340 100 14 2 47 9 75 15 74 15 89 18 143 26 26
3 55 8 64 9 8 2 55 6 105 10 49 4 91 9 93 11 6 6 469 -3 511 -10z"/>
<path d="M5101 4983 c-28 -109 -91 -368 -91 -374 0 -4 17 -13 38 -19 156 -50
298 -177 369 -330 75 -159 78 -361 10 -510 -12 -25 -67 -128 -122 -230 -56
-102 -121 -221 -145 -265 -24 -44 -52 -96 -63 -115 -42 -75 -182 -329 -221
-401 -170 -316 -351 -637 -357 -631 -3 4 -25 63 -49 132 -23 69 -44 132 -47
140 -16 43 -155 446 -157 455 -2 6 -6 17 -9 25 -3 8 -35 101 -71 205 -35 105
-114 336 -176 515 -61 179 -131 382 -155 453 l-43 127 169 0 169 0 0 218 0
218 -655 0 -655 0 0 -218 0 -218 254 0 254 0 10 -27 c6 -16 33 -93 61 -173 27
-80 68 -200 91 -267 l42 -123 -32 -62 c-61 -118 -143 -273 -170 -323 -15 -27
-48 -88 -72 -135 -65 -123 -314 -591 -364 -685 -24 -44 -69 -130 -101 -192
-42 -81 -60 -108 -66 -97 -5 8 -22 54 -39 102 -55 158 -250 726 -268 782 -10
30 -43 127 -73 215 -30 88 -107 311 -170 495 -63 184 -127 368 -141 409 -14
41 -26 76 -26 78 0 2 83 3 185 3 102 0 185 3 186 8 7 55 2 415 -6 421 -8 6
-1270 8 -1297 2 -3 0 -5 -97 -5 -213 l2 -213 238 -3 c130 -1 237 -4 237 -5 0
-4 86 -256 215 -632 59 -170 139 -407 180 -525 69 -202 227 -665 351 -1025 31
-88 76 -222 102 -298 l46 -137 255 2 254 3 29 55 c88 164 121 226 178 335 34
66 75 143 90 170 35 64 94 174 160 300 29 55 73 138 98 185 24 47 57 108 72
135 15 28 53 100 86 162 32 62 59 111 61 109 2 -1 46 -128 99 -282 52 -153
120 -351 150 -439 31 -88 84 -243 119 -345 34 -102 78 -230 97 -285 l35 -100
234 -3 235 -2 28 52 c64 118 177 324 186 338 5 8 32 58 61 110 46 85 162 294
402 730 44 80 93 170 109 200 17 30 40 73 53 95 200 353 313 588 330 687 3 17
7 34 9 37 10 15 20 146 18 236 -4 270 -116 530 -314 727 -62 60 -154 132 -213
164 -11 6 -29 15 -40 21 -54 30 -196 83 -221 83 -7 0 -18 -17 -23 -37z"/>
</g>
</svg>
