<svg viewBox="0 0 502 364" xmlns="http://www.w3.org/2000/svg" fill-rule="evenodd" clip-rule="evenodd" stroke-linejoin="round" stroke-miterlimit="1.4"><path d="M404 140.8V12c0-6.8-5.2-12-12-12h-80c-6.8 0-12 5.2-12 12s5.2 12 12 12h68v36.4c-42 2-82 16-114.8 40H184a24 24 0 0 0-24 24 24 24 0 0 0 24 24h32.8c-6 8.4-11.6 16.8-16.4 26l-11.2 20a12 12 0 0 0 4.8 16.4c2 1.2 4 1.6 5.6 1.6a12 12 0 0 0 10.4-6l11.2-20.4c32-60 92-98.4 158.8-101.6v56A112.2 112.2 0 0 0 320.8 340H203.6A72.2 72.2 0 0 0 150 220c-39.6 0-72 32.4-72 72a73 73 0 0 0 18.4 48H72c-6.8 0-12 5.2-12 12s5.2 12 12 12h320.8A112.3 112.3 0 0 0 502 252c0-57.2-42.8-104-98-111.2zM150 340c-26.4 0-48-21.6-48-48s21.6-48 48-48 48 21.6 48 48-21.6 48-48 48zm240 0c-48.4 0-88-39.6-88-88 0-45.2 34-82.4 78-87.6V252c0 6.8 5.2 12 12 12s12-5.2 12-12v-86.8c42 6.8 74 43.2 74 86.8 0 48.4-39.6 88-88 88zM12 364c-.8 0-1.6 0-2.4-.4-.8 0-1.6-.4-2.4-.8l-2-1.2a7 7 0 0 1-2-1.6c-2-1.6-3.2-4.8-3.2-8s1.2-6.4 3.6-8.4c.4-.4 1.2-1.2 2-1.6l2-1.2c.8-.4 1.6-.4 2.4-.8 4-.8 8 .4 10.8 3.2 2.4 2.4 3.6 5.2 3.6 8.4 0 .8 0 1.6-.4 2.4 0 .8-.4 1.6-.8 2.4-.4.8-.8 1.6-1.2 2-.4.8-.8 1.2-1.6 1.6a10 10 0 0 1-8.4 4z" fill="#cfcfda" fill-rule="nonzero"/></svg>