<svg viewBox="0 0 512 512" xmlns="http://www.w3.org/2000/svg" fill-rule="evenodd" clip-rule="evenodd" stroke-linejoin="round" stroke-miterlimit="1.4"><path d="M452 472H60c-11 0-20-9-20-20V188h432v264c0 11-9 20-20 20zM60 80h24v20a20 20 0 1 0 40 0V80h264v20a20 20 0 1 0 40 0V80h24c11 0 20 9 20 20v48H40v-48c0-11 9-20 20-20zm392-40h-24V19.8c0-11-8.9-19.8-19.8-19.8h-.4c-11 0-19.8 8.9-19.8 19.8V40H124V19.8c0-11-8.9-19.8-19.8-19.8h-.4C92.8 0 84 8.9 84 19.8V40H60C27 40 0 67 0 100v352c0 33 27 60 60 60h392c33 0 60-27 60-60V100c0-33-27-60-60-60z" fill="#a0b7ff" fill-rule="nonzero"/><path d="M116 250a20 20 0 1 0-40 0 20 20 0 1 0 40 0zM196 250a20 20 0 1 0-40 0 20 20 0 1 0 40 0zM276 250a20 20 0 1 0-40 0 20 20 0 1 0 40 0zM356 250a20 20 0 1 0-40 0 20 20 0 1 0 40 0zM436 250a20 20 0 1 0-40 0 20 20 0 1 0 40 0zM116 330a20 20 0 1 0-40 0 20 20 0 1 0 40 0zM196 330a20 20 0 1 0-40 0 20 20 0 1 0 40 0zM276 330a20 20 0 1 0-40 0 20 20 0 1 0 40 0zM356 330a20 20 0 1 0-40 0 20 20 0 1 0 40 0zM116 410a20 20 0 1 0-40 0 20 20 0 1 0 40 0zM196 410a20 20 0 1 0-40 0 20 20 0 1 0 40 0zM276 410a20 20 0 1 0-40 0 20 20 0 1 0 40 0zM356 410a20 20 0 1 0-40 0 20 20 0 1 0 40 0zM436 330a20 20 0 1 0-40 0 20 20 0 1 0 40 0z" fill="#a0b7ff"/></svg>