<svg viewBox="0 0 552 484" xmlns="http://www.w3.org/2000/svg" fill-rule="evenodd" clip-rule="evenodd" stroke-linejoin="round" stroke-miterlimit="1.4"><path d="M183.6 288c5.4 0 10.6 3 13.3 7.5a16 16 0 0 1-4 20.4c-2.8 2.2-6.4 3-10 3.1a52 52 0 0 0-51.4 46.2c-.6 4.7-2.7 9.2-6.5 12a16 16 0 0 1-11.1 2.6c-4.6-.5-9.2-1-14-.7a72.8 72.8 0 0 0-67.7 85.8 16 16 0 0 1-12.4 18l-.7.1h-3.7c-6.3-.8-12-5.8-13.2-12.2l-.8-3.3C.1 461.2 0 454.6.1 448.1a104 104 0 0 1 68.6-94c11-4 22.6-6 34.2-6.1h.3a84.2 84.2 0 0 1 80.4-60zm293.2 112a76 76 0 0 1 74.2 65.5c.8 6.1-2.5 12.8-8.2 15.8-1.6.9-3.4 1.4-5.3 1.7h-.4a15.8 15.8 0 0 1-17-13 45.5 45.5 0 0 0-32.2-37.4 43 43 0 0 0-26.5.9l-.5.2a15.7 15.7 0 0 1-20.5-14.1c0-1.3 0-2.5-.2-3.7A25 25 0 0 0 416 395c-2.6 0-5.2.6-7.7.6a15.9 15.9 0 0 1-14.9-11.7c-.9-4 0-8.3 2.2-11.8a64 64 0 0 0-30.8-92.5c-1-.5-2-.8-2.9-1.4a15.8 15.8 0 0 1-6.7-19.6c2.3-5.2 7.6-9 13.3-9.4a25 25 0 0 1 12 3.3A95.7 95.7 0 0 1 432 366.2l2.5.8a55.6 55.6 0 0 1 33.8 33.4v.1a108.2 108.2 0 0 1 8.5-.5zM2 470.2zm247.1-65.9c7.3 0 14.3 5.5 15.3 13.2.6 4.7-1 9.7-4.5 12.9l-1.6 1.5a15.2 15.2 0 0 1-20.2-1.5l-1.7-2c-4.2-5.8-3.8-14.6 1.4-19.5l.3-.3.3-.2c2.9-2.7 6.9-4.1 10.7-4.1zm10.8 26c-.4.4 0 0 0 0zm0 0s.2-.2 0 0zm-21.7-21.8s0 .1 0 0zm-4.7-173.8l-44.6-.1c-6.2 0-12.2-4-14.4-10-.7-1.7-1-3.5-1-5.4v-22.3a37.1 37.1 0 0 1 23-33.8l29.3-11.3c2-.7 3.3-3 3.3-5V70.6a91.5 91.5 0 0 1 21-57.9 35.5 35.5 0 0 1 27-12.8 34 34 0 0 1 26.6 13 90.5 90.5 0 0 1 20.8 57.5c0 25.5-.3 51.1 0 76.7 0 2.2 1.4 4.2 3.5 5 10 4.6 20.3 8.9 30.4 13.3 13 5.6 22 19.3 22.1 33.5v20.5c0 7.9-7.2 15-15.4 15.1l-44.6.1c.2 48.3.2 96.6 0 144.9 0 5.5-3.1 11-8.1 13.6a16 16 0 0 1-20-4.6 15.8 15.8 0 0 1-2.9-9V234.7h-25v104.9c0 6-3.7 11.9-9.4 14.2a16 16 0 0 1-17.8-4 15.7 15.7 0 0 1-3.8-10.2V234.7zM277 31a4 4 0 0 0-2.6 1.3 61.6 61.6 0 0 0-14.3 38.2v76a37.1 37.1 0 0 1-23 33.8L208 191.6c-2 .7-3.3 3-3.3 5v7h145v-5.1c0-2.2-1.5-4-3.5-5-10-4.5-20.3-8.8-30.4-13.2-13-5.6-22-19.3-22-33.5V70.5c-.1-14-5.3-28-14.5-38.3a2.8 2.8 0 0 0-2.1-1.2z" fill="#cfcfda" fill-rule="nonzero"/></svg>