<svg viewBox="0 0 78 78" xmlns="http://www.w3.org/2000/svg" fill-rule="evenodd" clip-rule="evenodd" stroke-linejoin="round" stroke-miterlimit="1.4"><path d="M38.7 0a38.7 38.7 0 1 0 0 77.4 38.7 38.7 0 0 0 0-77.4zM4.4 38.7c0-5 1.1-9.7 3-14l16.3 44.8A34.2 34.2 0 0 1 4.4 38.7zm34.3 34.2c-3.4 0-6.6-.5-9.7-1.4l10.3-29.8 10.5 28.8.2.5c-3.5 1.2-7.3 2-11.3 2zm4.7-50.3c2 0 3.9-.3 3.9-.3 1.9-.2 1.6-3-.2-2.8 0 0-5.6.4-9.1.4-3.4 0-9-.4-9-.4-1.9-.1-2.1 2.7-.3 2.8l3.6.3 5.4 14.6-7.5 22.5-12.5-37 4-.4c1.8-.2 1.5-3-.3-2.8 0 0-5.5.4-9.1.4H10a34.2 34.2 0 0 1 51.7-6.5h-.5c-3.3 0-5.7 3-5.7 6 0 2.9 1.6 5.3 3.4 8.1a18 18 0 0 1 2.8 9.4c0 3-1.1 6.4-2.6 11.1l-3.4 11.4-12.4-36.8zm12.5 45.7L66.3 38a32.3 32.3 0 0 0 2.4-15.8 34 34 0 0 1-12.8 46z" fill="#fff" fill-rule="nonzero"/></svg>