<?xml version="1.0" encoding="UTF-8" standalone="no"?>
<!DOCTYPE svg PUBLIC "-//W3C//DTD SVG 1.1//EN" "http://www.w3.org/Graphics/SVG/1.1/DTD/svg11.dtd">
<svg width="100%" height="100%" viewBox="0 0 513 513" version="1.1" xmlns="http://www.w3.org/2000/svg" xmlns:xlink="http://www.w3.org/1999/xlink" xml:space="preserve" xmlns:serif="http://www.serif.com/" style="fill-rule:evenodd;clip-rule:evenodd;stroke-linejoin:round;stroke-miterlimit:1.41421;">
    <g>
        <path d="M164.486,17.016C216.743,-3.01 275.526,-6.008 331.797,11.486L331.797,11.483C371.56,23.827 407.725,45.656 437.173,75.089C455.34,93.269 470.624,114.039 482.554,136.674L482.56,136.671C484.146,139.685 485.67,142.727 487.131,145.795L487.19,145.918L487.26,146.066L487.353,146.26L487.413,146.387C490.212,152.292 492.789,158.311 495.135,164.433C515.722,218.156 517.002,274.531 502.382,325.914C499.058,337.637 494.892,349.136 489.905,360.32C432.326,489.449 280.969,547.452 151.84,489.873C116.953,474.317 87.258,451.916 63.631,424.957C44.158,402.776 28.218,376.824 17.038,347.65C2.864,310.663 -2.158,272.419 0.86,235.413L0.861,235.401L0.864,235.364L0.895,234.979L0.907,234.845C2.391,216.999 5.778,199.116 11.175,181.474C18.382,157.861 28.966,135.365 42.59,114.743C46.846,108.296 51.363,102.09 56.121,96.133L56.172,96.068L56.181,96.058L56.196,96.039L56.274,95.941C83.745,61.59 120.439,33.87 164.478,16.993L164.486,17.016ZM347.317,51.422L347.295,51.47C318.604,38.653 287.519,32.071 256.095,32.158C219.69,32.167 183.835,41.048 151.635,58.034C133.928,67.374 117.99,78.751 103.955,91.725C101.854,93.68 99.788,95.677 97.761,97.717C72.025,123.465 52.951,155.098 42.193,189.878C5.636,308.065 71.81,433.509 189.997,470.068C285.987,499.76 386.765,461.684 440.82,383.015L440.955,382.818L440.978,382.784C486.373,316.402 494.402,227.723 454.272,151.647L454.341,151.61C431.485,108.256 394.49,72.356 347.317,51.422Z" style="fill:#292b62;fill-rule:nonzero;"/>
        <path d="M401.552,220.111C401.565,227.187 399.921,234.168 396.752,240.495L331.296,359.727L279.328,208.159L304.096,208.159L304.096,176.159L208.096,176.159L208.096,208.159L245.504,208.159L260.368,251.503L201.536,362.383L148.672,208.159L176.096,208.159L176.096,176.159L80.096,176.159L80.096,208.159L114.848,208.159L180.672,400.159L217.696,400.159L274.56,292.959L311.36,400.159L345.584,400.159L422.384,260.639L425.296,254.815C444.511,216.448 428.985,169.767 390.618,150.552C385.525,148.001 380.167,146.018 374.64,144.639L366.88,175.679C387.272,180.766 401.574,199.094 401.552,220.111Z" style="fill:#292b62;fill-rule:nonzero;"/>
    </g>
</svg>
